<svg xmlns="http://www.w3.org/2000/svg" xmlns:xlink="http://www.w3.org/1999/xlink" id="Layer_1" width="1280" height="110" x="0" y="0" enable-background="new 0 0 1280 110" version="1.1" viewBox="0 0 1280 110" xml:space="preserve"><path fill="#fff" d="M1280,0.378c-68.866,18.908-193.274,57.919-404.525,68.525	c-278.323,13.973-240.92-41.919-462.038-57.536C238.235-1.007,85.84,49.055,0,83.465v22.583l1280,3.804V0.378z" opacity=".3"/><path fill="#fff" d="M1280,11.378c-68.866,18.908-193.274,57.919-404.525,68.525	c-278.323,13.973-240.92-41.919-462.038-57.536C238.235,9.993,85.84,60.055,0,94.465v22.583l1280,3.804V11.378z" opacity=".5"/><path fill="#fff" d="M1280,22.378c-68.866,18.908-193.274,57.919-404.525,68.525c-278.323,13.973-240.92-41.919-462.038-57.536	C238.235,20.993,85.84,71.055,0,105.465v22.583l1280,3.804V22.378z"/></svg>